<?xml version="1.0" encoding="UTF-8" standalone="no"?><svg xmlns="http://www.w3.org/2000/svg" xmlns:xlink="http://www.w3.org/1999/xlink" contentScriptType="text/ecmascript" fill="#3fa14c" width="450" zoomAndPan="magnify" contentStyleType="text/css" viewBox="31.0 14.6 450.0 481.4" height="481.4" preserveAspectRatio="xMidYMid meet" version="1"><g><g id="change1_1"><path fill="inherit" d="M471,475.996h-40v-30h30c5.522,0,10-4.478,10-10v-270c0-3.513-1.843-6.768-4.855-8.575 c-53.012-31.791-50.591-30.533-52.47-31.06c-0.382-0.106-0.77-0.186-1.161-0.246c-0.131-0.02-0.262-0.027-0.393-0.042 c-0.864-0.097-1.719-0.08-2.507,0.03c-1.079,0.153-32.991,5.49-58.614,9.755V65.996c0-3.038-1.381-5.911-3.753-7.809 c-54.501-43.57-50.169-40.258-51.511-40.977c-1.621-0.876-3.404-1.265-5.119-1.2c-0.293,0.011-0.584,0.046-0.876,0.083 c-0.114,0.015-0.728,0.047-1.723,0.357c-0.923,0.292-44.268,20.101-121.164,55.11c-3.566,1.625-5.854,5.182-5.854,9.1v70.903 c-69.983-26.232-66.696-25.078-67.939-25.342c-1.279-0.269-2.66-0.286-3.991-0.022c-0.129,0.025-0.259,0.041-0.387,0.071 c-0.859,0.206-1.59,0.476-2.423,0.924c-0.126,0.068-0.247,0.151-0.371,0.225c-0.195,0.117-0.396,0.224-0.584,0.355 c-0.057,0.039-0.105,0.086-0.161,0.127C84.42,128.421,54.964,150.526,45,157.996c-2.518,1.889-4,4.853-4,8v270 c0,5.522,4.477,10,10,10h10v30H41c-5.523,0-10,4.478-10,10s4.477,10,10,10c5.778,0,424.099,0,430,0c5.522,0,10-4.478,10-10 S476.522,475.996,471,475.996z M411,475.996h-30v-30h30V475.996z M451,425.996h-30V153.658l30,18V425.996z M401,425.996h-20v-40 c0-5.522-4.478-10-10-10h-70V164.467l100-16.667V425.996z M331,139.191l-30,5V46.802l30,24V139.191z M181,87.096l100-45.555 c0,13.173,0,318.73,0,334.456h-70c-5.523,0-10,4.478-10,10v40h-20C181,409.779,181,103.116,181,87.096z M161,425.996h-60v-275.57 l60,22.5V425.996z M61,170.996l20-15v270c-6.995,0-13.005,0-20,0V170.996z M81,445.996c24.284,0,95.643,0,120,0v30H81V445.996z M221,475.996c0-9.679,0-70.258,0-80c16.934,0,122.954,0,140,0c0,9.679,0,70.258,0,80H221z"/><path fill="inherit" d="M201 95.996H221V135.99599999999998H201z"/><path fill="inherit" d="M231 95.996H251V135.99599999999998H231z"/><path fill="inherit" d="M201 145.996H221V185.996H201z"/><path fill="inherit" d="M231 145.996H251V185.996H231z"/><path fill="inherit" d="M201 195.996H221V235.996H201z"/><path fill="inherit" d="M231 195.996H251V235.996H231z"/><path fill="inherit" d="M201 245.996H221V285.996H201z"/><path fill="inherit" d="M121 195.996H141V235.996H121z"/><path fill="inherit" d="M121 245.996H141V285.996H121z"/><path fill="inherit" d="M121 295.996H141V335.996H121z"/><path fill="inherit" d="M121 345.996H141V385.996H121z"/><path fill="inherit" d="M231 245.996H251V285.996H231z"/><path fill="inherit" d="M311 175.996H331V205.996H311z"/><path fill="inherit" d="M341 175.996H361V205.996H341z"/><path fill="inherit" d="M371 175.996H391V205.996H371z"/><path fill="inherit" d="M311 215.996H331V245.996H311z"/><path fill="inherit" d="M341 215.996H361V245.996H341z"/><path fill="inherit" d="M371 215.996H391V245.996H371z"/><path fill="inherit" d="M311 255.996H331V285.996H311z"/><path fill="inherit" d="M341 255.996H361V285.996H341z"/><path fill="inherit" d="M371 255.996H391V285.996H371z"/><path fill="inherit" d="M311 295.996H331V325.996H311z"/><path fill="inherit" d="M341 295.996H361V325.996H341z"/><path fill="inherit" d="M311 335.996H331V365.996H311z"/><path fill="inherit" d="M201 295.996H221V335.996H201z"/><path fill="inherit" d="M241 405.996H341V425.996H241z"/><path fill="inherit" d="M241 435.996H341V455.996H241z"/></g></g></svg>