<svg id="Camada_1" data-name="Camada 1" xmlns="http://www.w3.org/2000/svg" xmlns:xlink="http://www.w3.org/1999/xlink" viewBox="0 0 1080 1080"><defs><style>.cls-1{fill:#58bf62;}.cls-2{clip-path:url(#clip-path);}</style><clipPath id="clip-path"><path class="cls-1" d="M551,265.67a58.27,58.27,0,0,1-21.92,0L293,685.32,628.3,403.21ZM797.2,745.47a57.81,57.81,0,0,1,12-20.53l-103-183.18L607.36,724.25A57.64,57.64,0,0,1,620,745.47Zm56.88-263.35a34.19,34.19,0,1,1-34.19,34.18A34.17,34.17,0,0,1,854.08,482.12ZM329.18,310.47A34.19,34.19,0,1,1,295,344.66,34.19,34.19,0,0,1,329.18,310.47ZM394.7,860.29a34.19,34.19,0,1,1-34.19,34.18A34.18,34.18,0,0,1,394.7,860.29ZM239,707.08,497.28,247.81a57.69,57.69,0,1,1,85.41,0l74,131.53L794.28,263.55a57.69,57.69,0,1,1,53.6,36.31,58.91,58.91,0,0,1-10.1-.89l-111,205L841,707.08A57.69,57.69,0,1,1,797.2,782H620a57.7,57.7,0,1,1-44.65-75L689.65,496c.18-.37.38-.74.59-1.1l96-177.15L664.4,420.26a17.76,17.76,0,0,1-2.33,2L281.64,742.34A57.7,57.7,0,1,1,239,707.08Z"/></clipPath></defs><path class="cls-1" d="M551,265.67a58.27,58.27,0,0,1-21.92,0L293,685.32,628.3,403.21ZM797.2,745.47a57.81,57.81,0,0,1,12-20.53l-103-183.18L607.36,724.25A57.64,57.64,0,0,1,620,745.47Zm56.88-263.35a34.19,34.19,0,1,1-34.19,34.18A34.17,34.17,0,0,1,854.08,482.12ZM329.18,310.47A34.19,34.19,0,1,1,295,344.66,34.19,34.19,0,0,1,329.18,310.47ZM394.7,860.29a34.19,34.19,0,1,1-34.19,34.18A34.18,34.18,0,0,1,394.7,860.29ZM239,707.08,497.28,247.81a57.69,57.69,0,1,1,85.41,0l74,131.53L794.28,263.55a57.69,57.69,0,1,1,53.6,36.31,58.91,58.91,0,0,1-10.1-.89l-111,205L841,707.08A57.69,57.69,0,1,1,797.2,782H620a57.7,57.7,0,1,1-44.65-75L689.65,496c.18-.37.38-.74.59-1.1l96-177.15L664.4,420.26a17.76,17.76,0,0,1-2.33,2L281.64,742.34A57.7,57.7,0,1,1,239,707.08Z"/><g class="cls-2"><rect class="cls-1" x="170.37" y="151.34" width="739.27" height="777.33"/></g></svg>