<?xml version="1.0" encoding="UTF-8" standalone="no"?><svg xmlns="http://www.w3.org/2000/svg" xmlns:xlink="http://www.w3.org/1999/xlink" contentScriptType="text/ecmascript" fill="#80e978" width="372.9" zoomAndPan="magnify" contentStyleType="text/css" viewBox="26.1 -0.0 372.9 425.3" height="425.3" preserveAspectRatio="xMidYMid meet" version="1"><g id="change1_1"><path d="M210.665,352.384c8.869,5.395,18.038,10.43,27.578,14.801c10.667,4.885,21.921,9.114,33.788,11.51 c1.099,0.222,2.203,0.428,3.314,0.616c0.284,0.048,0.58,0.085,0.866,0.131v35.246c0,3.294,2.67,5.964,5.964,5.964 c3.294,0,5.964-2.67,5.964-5.964v-34.033c1.075,0.041,2.152,0.079,3.237,0.08c6.939-0.003,14.04-0.879,20.767-3.262 c6.714-2.373,13.073-6.333,18.082-12.314c3.217-3.834,5.706-8.023,7.708-12.332c2.002-4.311,3.526-8.747,4.816-13.148 c0.926-3.161-0.887-6.474-4.048-7.4c-3.161-0.926-6.474,0.887-7.4,4.048h0c-1.182,4.039-2.528,7.91-4.185,11.474 c-1.657,3.566-3.617,6.818-6.028,9.691c-3.504,4.165-7.853,6.927-12.934,8.74c-5.068,1.803-10.851,2.578-16.777,2.575 c-4.704,0.001-9.487-0.482-14.034-1.255c-0.984-0.167-1.968-0.351-2.953-0.549c-10.621-2.14-21.034-6.012-31.178-10.661 c-9.018-4.131-17.782-8.937-26.347-14.147c-2.814-1.712-6.483-0.819-8.195,1.996C206.957,347.003,207.851,350.672,210.665,352.384z"/><path d="M104.902,319.901c7.143,5.143,12.647,11.779,16.85,19.463c4.198,7.677,7.059,16.398,8.795,25.484 c1.936,10.111,2.529,20.537,2.528,31.159c0,7.585-0.301,15.265-0.61,22.988c-0.131,3.291,2.43,6.066,5.722,6.197 c3.291,0.131,6.066-2.43,6.197-5.722l0,0c0.308-7.727,0.619-15.565,0.619-23.464c-0.001-11.059-0.608-22.246-2.741-33.4 c-1.927-10.064-5.124-19.955-10.044-28.963c-4.915-9.001-11.589-17.124-20.351-23.425c-15.064-10.838-28.453-22.085-39.601-36.392 c-22.081-28.327-34.199-63.727-34.194-99.647c0.003-44.823,18.151-85.348,47.522-114.729 C114.975,30.08,155.5,11.931,200.324,11.928c46.396-0.01,91.38,20.386,121.981,55.261c13.15,14.984,22.503,31.733,28.948,49.754 c6.441,18.016,9.954,37.307,11.33,57.235c0.005,0.072,0.028,0.137,0.035,0.208l-0.015,0.001c0.002,0.024,0.018,0.205,0.039,0.442 c0.164,1.847,0.712,7.8,2.024,14.533c0.659,3.374,1.507,6.951,2.639,10.383c1.144,3.435,2.528,6.727,4.543,9.632 c1.638,2.34,3.469,4.337,5.242,6.168c2.665,2.734,5.202,5.13,6.965,7.368c0.886,1.115,1.579,2.174,2.068,3.183 c0.49,1.013,0.788,1.965,0.921,3c0.055,0.439,0.081,0.864,0.081,1.28c-0.003,1.41-0.29,2.739-0.858,4.113 c-0.844,2.05-2.38,4.177-4.366,6.163c-1.977,1.988-4.372,3.819-6.72,5.356c-4.76,3.126-9.765,7.07-13.947,11.973 c-2.088,2.454-3.969,5.155-5.46,8.134c-1.49,2.976-2.587,6.24-3.053,9.735c-0.146,1.094-0.194,2.152-0.195,3.185 c0.004,2.285,0.235,4.463,0.434,6.516c0.204,2.046,0.379,3.963,0.376,5.552c0.002,1.139-0.09,2.099-0.246,2.792 c-0.157,0.701-0.354,1.107-0.533,1.364c-0.086,0.119-0.185,0.228-0.408,0.383c-0.325,0.228-0.963,0.522-1.861,0.738 c-0.892,0.221-2.013,0.365-3.187,0.439c-1.225,0.079-2.453,0.118-3.682,0.118c-11.34,0.006-22.751-3.351-32.239-9.529 c-2.761-1.796-6.456-1.013-8.252,1.748c-1.796,2.761-1.013,6.456,1.748,8.252c11.486,7.463,25.07,11.453,38.743,11.458 c1.482,0,2.965-0.047,4.446-0.142c2.148-0.145,4.595-0.431,7.157-1.315c1.279-0.446,2.592-1.054,3.86-1.92 c1.264-0.862,2.479-1.999,3.458-3.405c1.255-1.8,1.983-3.748,2.394-5.603c0.411-1.862,0.528-3.658,0.53-5.377 c-0.003-2.393-0.233-4.656-0.434-6.721c-0.206-2.058-0.38-3.923-0.376-5.346c0-0.64,0.033-1.187,0.09-1.605 c0.272-2.033,0.916-4.014,1.897-5.976c1.466-2.938,3.716-5.815,6.409-8.446c2.688-2.633,5.802-5.014,8.869-7.022 c3.793-2.495,7.909-5.696,11.287-9.861c1.684-2.085,3.183-4.426,4.278-7.063c1.095-2.631,1.771-5.573,1.769-8.686 c0-0.914-0.057-1.841-0.175-2.774c-0.409-3.274-1.592-6.184-3.074-8.653c-2.238-3.715-5.073-6.568-7.654-9.183 c-2.596-2.599-4.961-4.965-6.523-7.22c-1.097-1.542-2.31-4.27-3.266-7.387c-1.463-4.687-2.461-10.234-3.056-14.533 c-0.3-2.153-0.504-3.999-0.634-5.3c-0.065-0.651-0.112-1.164-0.143-1.52c-0.016-0.179-0.027-0.316-0.037-0.428l-0.017-0.18 l-0.004-0.033c-1.446-20.719-5.119-41.029-11.984-60.237c-6.882-19.262-16.996-37.413-31.216-53.608 C298.355,21.842,250.211,0.01,200.324,0C152.244-0.003,108.662,19.505,77.16,51.016C45.649,82.517,26.141,126.1,26.144,174.179 c0.005,38.598,12.982,76.518,36.714,106.979C75.005,296.744,89.402,308.747,104.902,319.901z M362.669,174.692L362.669,174.692 l-0.026,0.004L362.669,174.692z M363.565,177.03L363.565,177.03l-0.014,0.009L363.565,177.03z M372.97,177.731L372.97,177.731 l0.007,0.006L372.97,177.731z M374.243,175.401L374.243,175.401l0.022,0.006L374.243,175.401z M374.423,174.514L374.423,174.514 l0.025,0.003L374.423,174.514z"/><path d="M147.703,298.177c3.294,0,5.964-2.67,5.964-5.964v-67.116c0-1.163-0.333-2.282-0.968-3.257l-16.413-25.182 c0.111-0.108,0.234-0.203,0.344-0.313c5.093-5.083,8.261-12.17,8.258-19.937c0.003-7.767-3.165-14.853-8.258-19.937 c-5.083-5.093-12.17-8.261-19.937-8.258c-7.767-0.003-14.853,3.165-19.937,8.258c-5.093,5.083-8.261,12.17-8.258,19.937 c-0.003,7.767,3.165,14.853,8.258,19.937c5.083,5.093,12.17,8.261,19.937,8.258c3.313,0.001,6.488-0.604,9.451-1.66l15.594,23.926 v65.344C141.738,295.507,144.409,298.177,147.703,298.177z M116.693,160.143c4.511,0.003,8.539,1.811,11.502,4.764 c2.953,2.962,4.761,6.991,4.764,11.502c-0.003,4.511-1.811,8.539-4.764,11.502c-2.962,2.953-6.991,4.761-11.502,4.764 c-4.511-0.003-8.54-1.811-11.502-4.764c-2.953-2.962-4.761-6.991-4.764-11.502c0.003-4.511,1.811-8.54,4.764-11.502 C108.154,161.954,112.183,160.146,116.693,160.143z"/><path d="M212.756,225.097v67.116c0,3.294,2.67,5.964,5.964,5.964c3.294,0,5.964-2.67,5.964-5.964v-65.344l15.594-23.926 c2.963,1.056,6.138,1.661,9.451,1.66c7.767,0.003,14.853-3.165,19.937-8.258c5.093-5.083,8.261-12.17,8.258-19.937 c0.003-7.767-3.165-14.853-8.258-19.937c-5.083-5.093-12.17-8.261-19.937-8.258c-7.767-0.003-14.853,3.165-19.937,8.258 c-5.093,5.083-8.261,12.17-8.258,19.937c-0.003,7.767,3.165,14.853,8.258,19.937c0.109,0.11,0.233,0.205,0.344,0.313 l-16.413,25.182C213.089,222.815,212.756,223.934,212.756,225.097z M249.73,160.143c4.511,0.003,8.54,1.811,11.502,4.764 c2.953,2.962,4.761,6.991,4.764,11.502c-0.003,4.511-1.811,8.539-4.764,11.502c-2.962,2.953-6.991,4.761-11.502,4.764 c-4.511-0.003-8.54-1.811-11.502-4.764c-2.953-2.962-4.761-6.991-4.764-11.502c0.003-4.511,1.811-8.54,4.764-11.502 C241.19,161.954,245.219,160.146,249.73,160.143z"/><path d="M183.243,425.197c3.294,0,5.964-2.67,5.964-5.964V120.395c5.39-1.164,10.227-3.859,13.972-7.611 c5.093-5.083,8.261-12.17,8.258-19.937c0.003-7.767-3.165-14.853-8.258-19.937c-5.083-5.093-12.17-8.261-19.937-8.258 c-7.767-0.003-14.853,3.165-19.937,8.258c-5.093,5.083-8.261,12.17-8.258,19.937c-0.003,7.767,3.165,14.853,8.258,19.937 c3.745,3.752,8.582,6.447,13.972,7.611v298.837C177.279,422.526,179.949,425.197,183.243,425.197z M183.243,76.581 c4.511,0.003,8.54,1.811,11.502,4.764c2.953,2.962,4.761,6.991,4.764,11.502c-0.003,4.511-1.811,8.539-4.764,11.502 c-2.962,2.953-6.991,4.761-11.502,4.764c-4.511-0.003-8.54-1.811-11.502-4.764c-2.953-2.962-4.761-6.991-4.764-11.502 c0.003-4.511,1.811-8.539,4.764-11.502C174.703,78.392,178.732,76.584,183.243,76.581z"/></g></svg>